<?xml version="1.0" encoding="UTF-8" standalone="no"?>
<!-- Created with Inkscape (http://www.inkscape.org/) -->

<svg
   width="6.614583mm"
   height="6.614583mm"
   viewBox="0 0 6.614583 6.614583"
   version="1.1"
   id="svg1"
   xmlns="http://www.w3.org/2000/svg"
   xmlns:svg="http://www.w3.org/2000/svg">
  <defs
     id="defs1" />
  <g
     id="layer1"
     transform="translate(-49.224609,-48.390625)">
    <path
       style="color:#000000;fill:#ffffff;fill-opacity:0.3;stroke-width:0.111111;-inkscape-stroke:none"
       d="m 52.5319,48.390625 c -1.822212,0 -3.307291,1.485079 -3.307291,3.307291 0,1.822212 1.485079,3.307292 3.307291,3.307292 1.822213,0 3.307292,-1.485079 3.307292,-3.307292 0,-1.822212 -1.485079,-3.307292 -3.307292,-3.307291 z m 0,0.734809 c 1.425015,-10e-7 2.572267,1.147468 2.572267,2.572482 0,1.425015 -1.147252,2.572266 -2.572267,2.572266 -1.425014,0 -2.572482,-1.147251 -2.572482,-2.572266 0,-1.425014 1.147468,-2.572482 2.572482,-2.572482 z"
       id="path1" />
    <path
       style="color:#000000;fill:#ffffff;fill-opacity:1;stroke-width:0.111111;stroke-linecap:round;-inkscape-stroke:none"
       d="m 52.5319,48.390625 a 0.36747666,0.36747666 0 0 0 -0.367621,0.367404 0.36747666,0.36747666 0 0 0 0.367621,0.367405 c 0.919596,0 1.76785,0.489847 2.227648,1.286241 0.459799,0.796394 0.459799,1.775872 0,2.572266 a 0.36747666,0.36747666 0 0 0 0.134549,0.501953 0.36747666,0.36747666 0 0 0 0.501953,-0.134332 c 0.590495,-1.022768 0.590495,-2.284523 0,-3.307292 -0.590496,-1.022768 -1.683158,-1.653645 -2.86415,-1.653645 z"
       id="circle1" />
  </g>
</svg>
