<?xml version="1.0" encoding="UTF-8"?>
<svg width="65" height="65" preserveAspectRatio="xMidYMid" version="1.0" viewBox="0 0 48.75 48.75" xmlns="http://www.w3.org/2000/svg" zoomAndPan="magnify">
 <defs>
  <clipPath id="9ca265fd76">
   <path d="m80.012 80.012h214.98v214.98h-214.98z"/>
  </clipPath>
  <clipPath id="cce9d3a102">
   <path d="m187.5 80.012c-59.363 0-107.49 48.125-107.49 107.49s48.125 107.49 107.49 107.49 107.49-48.125 107.49-107.49-48.125-107.49-107.49-107.49"/>
  </clipPath>
 </defs>
 <g transform="matrix(.22677 0 0 .22677 -18.144 -18.144)" clip-path="url(#9ca265fd76)">
  <g clip-path="url(#cce9d3a102)">
   <path d="m80.012 80.012h214.98v214.98h-214.98z" fill="#3e4c35"/>
  </g>
 </g>
 <g fill="#fff">
  <g transform="matrix(.22677 0 0 .22677 -18.144 -18.144)">
   <g transform="translate(140.64 125.02)">
    <path d="m-6.0312-11.016 3.8906-2.4375 0.32812 0.53125-0.875 0.5-0.046875 0.03125c-0.09375 0.0625-0.14453 0.14844-0.15625 0.25-0.019531 0.10547 0 0.21094 0.0625 0.3125l3.9062 6.2344c0.625 0.99219 1.3828 1.5898 2.2812 1.7969 0.90625 0.21094 1.8594 0 2.8594-0.625 0.5625-0.35156 0.98828-0.80469 1.2812-1.3594 0.28906-0.5625 0.41406-1.1641 0.375-1.8125-0.042969-0.65625-0.24609-1.2734-0.60938-1.8594l-3.9062-6.25c-0.074219-0.11328-0.16406-0.1875-0.26562-0.21875-0.10547-0.03125-0.19922-0.0078-0.28125 0.0625l-0.85938 0.57812-0.32812-0.53125 2.8594-1.7812 0.32812 0.53125-0.70312 0.39062-0.046875 0.03125c-0.09375 0.0625-0.15234 0.14844-0.17188 0.25-0.011719 0.09375 0.015625 0.19531 0.078125 0.29688l4.0156 6.4062c0.42578 0.67969 0.63281 1.3984 0.625 2.1562 0 0.75-0.21094 1.4648-0.625 2.1406-0.41797 0.67969-1 1.2578-1.75 1.7344-1.4492 0.90625-2.7578 1.2891-3.9219 1.1406-1.168-0.15625-2.1328-0.83594-2.8906-2.0469l-3.8906-6.2344c-0.070312-0.10156-0.16406-0.17188-0.28125-0.20312-0.11328-0.03125-0.21094-0.0078-0.29688 0.0625l-0.65625 0.45312z"/>
   </g>
   <g transform="translate(155.88 116.13)">
    <path d="m0.78125-0.9375 0.79688-0.23438c0.23828-0.09375 0.30078-0.28516 0.1875-0.57812l-3.5781-9.8125c-0.050781-0.16406-0.125-0.26953-0.21875-0.3125-0.09375-0.05078-0.22266-0.03906-0.39062 0.03125l-0.67188 0.29688-0.21875-0.57812 4.6406-1.6875c1.3633-0.5 2.4609-0.60938 3.2969-0.32812 0.84375 0.27344 1.4609 0.94531 1.8594 2.0156 0.375 1.043 0.35156 1.9922-0.0625 2.8438-0.41797 0.85547-1.1797 1.4844-2.2812 1.8906l-2.0625 0.75 1.5312 4.2188c0.11328 0.29297 0.30078 0.39062 0.5625 0.29688l0.95312-0.39062 0.20312 0.57812-4.3438 1.5781zm2.75-6.8438c0.60156-0.22656 1.0039-0.6875 1.2031-1.375 0.20703-0.6875 0.16016-1.4453-0.14062-2.2812-0.29297-0.78906-0.74609-1.3438-1.3594-1.6562-0.60547-0.32031-1.2773-0.34766-2.0156-0.07813l-1.1094 0.40625c-0.054688 0.02344-0.09375 0.07031-0.125 0.14062-0.039062 0.0625-0.050781 0.12109-0.03125 0.17188l1.9219 5.2656z"/>
   </g>
   <g transform="translate(170.1 111.31)">
    <path d="m0.9375-0.76562 0.84375-0.078125c0.25-0.03125 0.34766-0.19531 0.29688-0.5l-1.5469-10.375c-0.023438-0.125-0.078125-0.22266-0.17188-0.29688-0.085937-0.082031-0.19531-0.10938-0.32812-0.078125l-0.76562 0.15625-0.09375-0.60938 4.6875-0.70312c1.5312-0.22656 2.6797-0.13281 3.4531 0.28125 0.76953 0.40625 1.2422 1.1953 1.4219 2.3594 0.10156 0.71094-0.039063 1.3594-0.42188 1.9531-0.38672 0.59375-0.94531 1.043-1.6719 1.3438 0.42578-0.0625 0.87891 0.023438 1.3594 0.25 0.47656 0.23047 0.90625 0.60156 1.2812 1.1094 0.375 0.51172 0.61719 1.1328 0.73438 1.8594 0.0625 0.40625 0.17188 0.82031 0.32812 1.2344 0.16406 0.41797 0.34766 0.625 0.54688 0.625 0.09375 0.011719 0.19531 0.011719 0.3125 0 0.16406-0.03125 0.28906-0.078125 0.375-0.14062l0.09375 0.625-2.8125 0.42188c-0.23047-0.32031-0.39844-0.76562-0.5-1.3281-0.085937-0.36328-0.14062-0.625-0.17188-0.78125l-0.09375-0.6875c-0.15625-1.0391-0.60938-1.7656-1.3594-2.1719s-1.6094-0.53516-2.5781-0.39062l-0.875 0.125 0.73438 4.9219c0.050781 0.30469 0.21875 0.43359 0.5 0.39062l1-0.20312 0.09375 0.60938-4.5781 0.6875zm4.2031-6.6562c0.63281-0.09375 1.0977-0.39062 1.3906-0.89062 0.28906-0.50781 0.375-1.1758 0.25-2-0.14844-0.94531-0.44922-1.6094-0.90625-1.9844-0.46094-0.38281-1.1016-0.51562-1.9219-0.39062l-1.2969 0.20312c-0.16797 0.02344-0.24219 0.10547-0.21875 0.25l0.76562 5.1094z"/>
   </g>
   <g transform="translate(186.37 109.49)">
    <path d="m1.0625-0.57812 0.82812 0.0625c0.25781 0.011719 0.39453-0.14062 0.40625-0.45312l0.26562-10.484c0-0.125-0.03125-0.23438-0.09375-0.32812s-0.16406-0.13281-0.29688-0.125l-0.82812 0.03125 0.015625-0.625 4.4062 0.10938-0.015625 0.625-0.8125-0.0625-0.046875-0.01563c-0.10547 0-0.19531 0.04297-0.26562 0.125-0.074219 0.08594-0.10938 0.1875-0.10938 0.3125l-0.26562 10.484c-0.011719 0.3125 0.125 0.47656 0.40625 0.48438l0.8125-0.03125-0.015625 0.60938-4.4062-0.10938z"/>
   </g>
   <g transform="translate(197.04 109.82)">
    <path d="m2.2031-5.8594c0.4375-2.1133 1.3008-3.5977 2.5938-4.4531 1.2891-0.85156 2.9297-1.0703 4.9219-0.65625 0.63281 0.13672 1.1719 0.30859 1.6094 0.51562 0.44531 0.19922 0.90625 0.44531 1.375 0.73438 0.48828 0.29297 0.85156 0.46484 1.0938 0.51562-0.10547 0.27344-0.23047 0.74219-0.375 1.4062-0.042969 0.19922-0.078125 0.46484-0.10938 0.79688-0.03125 0.21875-0.05859 0.38672-0.07813 0.5l-0.82812-0.17188c0.03906-0.0625 0.07031-0.16016 0.09375-0.29688 0.1875-0.86328 0.02344-1.6016-0.48438-2.2188-0.51172-0.61328-1.3516-1.0469-2.5156-1.2969-1.1875-0.25-2.25 0.05469-3.1875 0.90625-0.92969 0.84375-1.5938 2.2344-2 4.1719-0.80469 3.793 0.14844 5.9727 2.8594 6.5469 0.61328 0.125 1.125 0.16406 1.5312 0.125 0.40625-0.042969 0.83594-0.21484 1.2969-0.51562l0.6875-3.2969c0.0625-0.28906-0.039062-0.46094-0.29688-0.51562l-1.2031-0.21875 0.125-0.59375 4.7344 1-0.125 0.59375-0.84375-0.21875c-0.125-0.019531-0.23047 0.00781-0.3125 0.078125-0.07422 0.0625-0.125 0.15234-0.15625 0.26562l-0.8125 3.8906c-0.0625-0.023437-0.15625-0.046875-0.28125-0.078125-0.25-0.054688-0.69531-0.03125-1.3281 0.0625-0.65625 0.070312-1.2188 0.11328-1.6875 0.125-0.46875 0.007812-0.99219-0.046875-1.5625-0.17188-1.918-0.39844-3.2969-1.2422-4.1406-2.5312-0.83594-1.2891-1.0312-2.957-0.59375-5z"/>
   </g>
   <g transform="translate(214.02 113.79)">
    <path d="m1.2188-0.10938 0.71875 0.39062c0.22656 0.11328 0.41016 0.03125 0.54688-0.25l4.4531-9.4844c0.125-0.26953 0.070312-0.46094-0.15625-0.57812l-0.76562-0.3125 0.26562-0.5625 4.1875 1.9688-0.26562 0.5625-0.92188-0.48438-0.046875-0.015625c-0.11719-0.050781-0.21875-0.050781-0.3125 0-0.09375 0.054688-0.16797 0.13672-0.21875 0.25l-2.0156 4.2969 5.5938 2.625 2.0156-4.2969c0.125-0.26953 0.06641-0.46094-0.17188-0.57812l-0.9375-0.39062 0.26562-0.5625 4.1562 1.9531-0.26562 0.5625-0.71875-0.39062-0.046875-0.03125c-0.10547-0.039062-0.20312-0.035156-0.29688 0.015625-0.09375 0.054687-0.16797 0.13672-0.21875 0.25l-4.4531 9.4844c-0.13672 0.28125-0.078125 0.47656 0.17188 0.59375l0.76562 0.3125-0.26562 0.54688-4.1562-1.9531 0.26562-0.54688 0.89062 0.46875c0.23828 0.11328 0.42578 0.03125 0.5625-0.25l2.1875-4.6562-5.5938-2.625-2.1875 4.6562c-0.13672 0.28125-0.074219 0.47656 0.1875 0.59375l0.96875 0.40625-0.26562 0.54688-4.1875-1.9688z"/>
   </g>
   <g transform="translate(230.53 122.23)">
    <path d="m7.9219-9.7969c0.14453 0.13672 0.36328 0.3125 0.65625 0.53125l6.9688 5.3594c0.35156 0.27344 0.58203 0.4375 0.6875 0.5l-1.9844 2.5938-0.4375-0.32812c0.55078-0.71875 0.79688-1.3672 0.73438-1.9531-0.054687-0.58203-0.44531-1.1562-1.1719-1.7188l-0.70312-0.54688c-0.10547-0.082031-0.22656-0.070313-0.35938 0.03125l-6.5156 8.5c-0.1875 0.23828-0.16797 0.44141 0.0625 0.60938l0.90625 0.64062-0.375 0.48438-3.9688-3.0469 0.375-0.48438 0.85938 0.71875c0.10156 0.082031 0.21094 0.10156 0.32812 0.0625 0.11328-0.042969 0.21875-0.125 0.3125-0.25l6.4688-8.4219c0.10156-0.125 0.09375-0.23438-0.03125-0.32812l-0.6875-0.53125c-0.74219-0.5625-1.4023-0.79688-1.9844-0.70312-0.57422 0.09375-1.1367 0.5-1.6875 1.2188l-0.4375-0.34375z"/>
   </g>
  </g>
  <g transform="translate(242.37 132.06)"></g>
  <g transform="matrix(.22677 0 0 .22677 -18.144 -18.144)">
   <g transform="translate(248.45 138.59)">
    <path d="m10.547-6.8906c0.09375 0.17969 0.24219 0.41797 0.45312 0.71875l4.9844 7.25c0.25781 0.36328 0.42969 0.58594 0.51562 0.67188l-2.6875 1.8594-0.3125-0.45312c0.73828-0.52344 1.1719-1.0703 1.2969-1.6406 0.125-0.5625-0.07422-1.2266-0.59375-1.9844l-0.5-0.71875c-0.074219-0.11328-0.18359-0.14453-0.32812-0.09375l-8.8281 6.0781c-0.25 0.17578-0.29688 0.38281-0.14062 0.625l0.67188 0.875-0.5 0.34375-2.8438-4.125 0.5-0.34375 0.59375 0.95312c0.082031 0.11328 0.17969 0.16406 0.29688 0.15625 0.125-0.011719 0.25-0.058594 0.375-0.14062l8.75-6.0156c0.13281-0.09375 0.15625-0.20703 0.0625-0.34375l-0.48438-0.70312c-0.53125-0.75781-1.0898-1.1875-1.6719-1.2812-0.58594-0.10156-1.2461 0.10547-1.9844 0.625l-0.3125-0.45312z"/>
   </g>
   <g transform="translate(256.75 151.26)">
    <path d="m0.96875 0.73438 0.28125 0.76562c0.10156 0.23828 0.30078 0.29688 0.59375 0.17188l9.6562-4.0938c0.11328-0.039063 0.19141-0.11328 0.23438-0.21875 0.050781-0.10156 0.039063-0.22266-0.03125-0.35938l-0.32812-0.67188 0.5625-0.25 1.8438 4.3594c0.61328 1.4258 0.81641 2.5625 0.60938 3.4062-0.21094 0.84375-0.85547 1.4922-1.9375 1.9531-0.65625 0.28125-1.3203 0.30469-1.9844 0.078125-0.66797-0.23047-1.25-0.65625-1.75-1.2812 0.16406 0.40625 0.20312 0.86719 0.10938 1.3906-0.09375 0.51953-0.34375 1.0234-0.75 1.5156-0.40625 0.48828-0.94922 0.87891-1.625 1.1719-0.38672 0.16406-0.76172 0.37891-1.125 0.64062-0.35547 0.25781-0.5 0.48828-0.4375 0.6875 0 0.08203 0.019531 0.17578 0.0625 0.28125 0.0625 0.15625 0.14062 0.26562 0.23438 0.32812l-0.57812 0.25-1.1094-2.6094c0.25-0.30469 0.63281-0.57812 1.1562-0.82812 0.32031-0.16797 0.5625-0.28906 0.71875-0.35938l0.625-0.26562c0.96875-0.40625 1.5547-1.0234 1.7656-1.8438 0.21875-0.82422 0.14062-1.6875-0.23438-2.5938l-0.35938-0.8125-4.5781 1.9375c-0.29297 0.125-0.38281 0.3125-0.26562 0.5625l0.45312 0.9375-0.5625 0.23438-1.8125-4.25zm7.5 2.3906c0.25 0.59375 0.65625 0.96094 1.2188 1.1094 0.57031 0.15625 1.2383 0.070313 2-0.25 0.88281-0.375 1.4453-0.83594 1.6875-1.375 0.25-0.54297 0.20703-1.1953-0.125-1.9531l-0.5-1.2188c-0.074219-0.14453-0.17969-0.1875-0.3125-0.125l-4.7344 2.0156z"/>
   </g>
   <g transform="translate(262.67 166.34)">
    <path d="m0.8125 0.90625 0.09375 0.84375c0.050781 0.23828 0.23438 0.32812 0.54688 0.26562l10.281-2.0312c0.125-0.019531 0.21875-0.070312 0.28125-0.15625 0.070313-0.09375 0.097656-0.20312 0.078125-0.32812l-0.20312-0.78125 0.60938-0.10938 1.7188 8.6875c0.03906 0.19531 0.07031 0.3125 0.09375 0.34375l-3.2031 0.64062-0.10938-0.5625c0.91406-0.1875 1.5352-0.55469 1.8594-1.0938 0.32031-0.53125 0.37891-1.3125 0.17188-2.3438l-0.4375-2.2031c-0.03125-0.16797-0.14844-0.23438-0.34375-0.20312l-4.7344 0.9375 0.39062 1.9219c0.09375 0.47656 0.34766 0.82812 0.76562 1.0469 0.42578 0.21875 0.96875 0.26562 1.625 0.14062l0.10938 0.54688-4.7656 0.9375-0.10938-0.54688c0.60156-0.11719 1.0703-0.37109 1.4062-0.76562 0.33203-0.38672 0.45703-0.79688 0.375-1.2344l-0.39062-1.9219-5.2656 1.0312c-0.17969 0.039062-0.25 0.14453-0.21875 0.3125l0.57812 2.875c0.1875 0.9375 0.59375 1.5938 1.2188 1.9688s1.4414 0.46094 2.4531 0.26562l0.10938 0.57812-3.75 0.75c-0.023437-0.32422-0.12109-0.9375-0.29688-1.8438l-1.5469-7.8438z"/>
   </g>
   <g transform="translate(265.33 181.95)">
    <path d="m0.60938 1.0469-0.0625 0.84375c0 0.25 0.15625 0.37891 0.46875 0.39062l10.484 0.078125c0.125 0.007813 0.22656-0.027344 0.3125-0.10938 0.09375-0.074219 0.13281-0.17188 0.125-0.29688l-0.046875-0.79688h0.625l-0.07813 8.8594c0 0.19531 0.0078 0.31641 0.03125 0.35938l-3.2656-0.03125 0.015625-0.5625c0.9375 0.00781 1.6133-0.21875 2.0312-0.6875 0.41406-0.46094 0.62891-1.2148 0.64062-2.2656l0.01563-2.25c0.0078-0.16797-0.08594-0.25-0.28125-0.25l-4.8281-0.046875-0.015625 1.9688c-0.011719 0.47656 0.17188 0.86328 0.54688 1.1562 0.375 0.30078 0.89453 0.45703 1.5625 0.46875l-0.015625 0.5625-4.8594-0.046875 0.015625-0.5625c0.61328 0.00781 1.125-0.14844 1.5312-0.46875 0.40625-0.3125 0.61328-0.6875 0.625-1.125l0.015625-1.9688-5.375-0.046875c-0.17969 0-0.27344 0.082031-0.28125 0.25l-0.015625 2.9375c-0.011719 0.95703 0.25 1.6875 0.78125 2.1875 0.53906 0.5 1.3281 0.75391 2.3594 0.76562v0.57812l-3.8281-0.03125c0.042969-0.3125 0.070312-0.93359 0.078125-1.8594l0.0625-8z"/>
   </g>
   <g transform="translate(104.5 153.8)">
    <path d="m5.5781 2.8594c1.9453 0.65625 3.2891 1.6914 4.0312 3.1094 0.75 1.4258 0.8125 3.0781 0.1875 4.9531-0.16797 0.47656-0.34375 0.86719-0.53125 1.1719-0.1875 0.30078-0.44531 0.67188-0.76562 1.1094-0.24219 0.28125-0.43359 0.53125-0.57812 0.75-0.14844 0.22656-0.27344 0.50391-0.375 0.82812-0.39844-0.19922-0.88672-0.39062-1.4688-0.57812-0.28125-0.09375-0.53125-0.17188-0.75-0.23438-0.21875-0.05469-0.35156-0.07422-0.39062-0.0625l0.15625-0.48438c0.58203 0.0625 1.1602-0.01563 1.7344-0.23438 0.57031-0.21875 1.082-0.55469 1.5312-1 0.44531-0.44922 0.76953-0.96484 0.96875-1.5469 0.25781-0.78125 0.25-1.543-0.03125-2.2812-0.28125-0.73047-0.80469-1.3906-1.5625-1.9844-0.75-0.59375-1.6992-1.0859-2.8438-1.4688-1.0742-0.36719-2.0859-0.53125-3.0312-0.5-0.94922 0.039062-1.7578 0.28125-2.4219 0.71875-0.66406 0.44531-1.1289 1.0664-1.3906 1.8594-0.3125 0.90625-0.30078 1.8047 0.03125 2.7031 0.32422 0.89453 0.88281 1.582 1.6719 2.0625l-0.1875 0.54688c-0.58203-0.29297-1.1289-0.52344-1.6406-0.6875-0.38281-0.125-0.69531-0.21094-0.9375-0.25l0.03125-0.10938c0.0625-0.1875 0.10547-0.42188 0.125-0.70312 0.023437-0.27344 0.03125-0.49219 0.03125-0.65625 0-0.16797 0.00781-0.28906 0.015625-0.35938-0.00781-0.55469 0.011719-1.0547 0.0625-1.5 0.054688-0.44922 0.15234-0.89062 0.29688-1.3281 0.39844-1.1875 0.99219-2.1484 1.7812-2.875 0.78125-0.71875 1.7031-1.168 2.7656-1.3438 1.0703-0.16797 2.2344-0.042969 3.4844 0.375z"/>
   </g>
   <g transform="translate(98.982 172.38)">
    <path d="m6.1562 1.5625c2.0703 0.20703 3.6094 0.89844 4.6094 2.0781 1 1.1875 1.4062 2.7344 1.2188 4.6406-0.19922 1.9375-0.91797 3.375-2.1562 4.3125-1.2305 0.9375-2.8594 1.3008-4.8906 1.0938-2.0547-0.21094-3.5898-0.90234-4.6094-2.0781-1.0195-1.1797-1.4297-2.7188-1.2344-4.625 0.1875-1.9062 0.89844-3.3398 2.125-4.2969 1.2383-0.96094 2.8828-1.3359 4.9375-1.125zm-0.21875 2.1406c-2.0938-0.21094-3.6328-0.046875-4.6094 0.48438-0.98047 0.53906-1.5352 1.4883-1.6719 2.8438-0.13281 1.3516 0.22656 2.3906 1.0781 3.1094 0.85156 0.72656 2.3281 1.1953 4.4219 1.4062 2.0703 0.20703 3.5977 0.03906 4.5781-0.5 0.98828-0.53125 1.5508-1.4766 1.6875-2.8281 0.13281-1.3555-0.23047-2.3984-1.0938-3.125-0.85547-0.71875-2.3203-1.1836-4.3906-1.3906z"/>
   </g>
   <g transform="translate(97.767 192.98)">
    <path d="m0.75 0.98438 0.03125 0.82812c0.019531 0.25 0.1875 0.35938 0.5 0.32812l10.406-1.1875c0.28906-0.03125 0.42578-0.16797 0.40625-0.40625l-0.01563-0.03125-0.125-0.8125 0.625-0.0625 1.0156 9.0469c0.01953 0.17578 0.03906 0.28516 0.0625 0.32812l-3.25 0.35938-0.0625-0.57812c0.92578-0.10547 1.5703-0.41797 1.9375-0.9375 0.36328-0.51172 0.48828-1.2812 0.375-2.3125l-0.28124-2.4531c-0.023438-0.16797-0.125-0.24219-0.3125-0.21875l-5.0312 0.57812 0.1875 1.5781c0.050781 0.48828 0.28516 0.85938 0.70312 1.1094 0.42578 0.25781 0.96094 0.35156 1.6094 0.28125l0.0625 0.5625-4.7969 0.54688-0.0625-0.5625c0.63281-0.074219 1.125-0.28906 1.4688-0.64062 0.35156-0.34375 0.50391-0.75781 0.45312-1.2344l-0.1875-1.5781-4.9844 0.5625c-0.13672 0.007813-0.24219 0.054687-0.3125 0.14062-0.074219 0.09375-0.10547 0.19531-0.09375 0.3125l0.1875 1.0938-0.625 0.0625-0.51562-4.6406z"/>
   </g>
   <g transform="translate(100.37 210.35)">
    <path d="m0.90625 0.8125 0.20312 0.8125c0.070313 0.23828 0.25781 0.3125 0.5625 0.21875l9.9844-3.1719c0.28125-0.09375 0.38281-0.25391 0.3125-0.48438l-0.015625-0.03125-0.29688-0.76562 0.59375-0.1875 2.7656 8.6719c0.05078 0.17578 0.09375 0.27344 0.125 0.29688l-3.1094 1-0.17188-0.54688c0.88281-0.28125 1.4531-0.71484 1.7031-1.2969 0.25781-0.58594 0.23828-1.3672-0.0625-2.3438l-0.75-2.3438c-0.054688-0.16797-0.16797-0.21875-0.34375-0.15625l-4.8281 1.5312 0.46875 1.5156c0.15625 0.46875 0.46094 0.78516 0.92188 0.95312 0.45703 0.17578 1 0.16406 1.625-0.03125l0.17188 0.53125-4.6094 1.4688-0.17188-0.53125c0.60156-0.19922 1.0469-0.50781 1.3281-0.92188 0.28125-0.40625 0.34375-0.83984 0.1875-1.2969l-0.46875-1.5156-4.7812 1.5156c-0.125 0.039063-0.21875 0.11328-0.28125 0.21875-0.0625 0.10156-0.074219 0.20703-0.03125 0.3125l0.39062 1.0312-0.59375 0.1875-1.4219-4.4531z"/>
   </g>
   <g transform="translate(106.28 226.92)">
    <path d="m1.0625 0.625 0.34375 0.76562c0.11328 0.21875 0.3125 0.25 0.59375 0.09375l9.1562-5.0938c0.11328-0.0625 0.19141-0.14453 0.23438-0.25 0.03906-0.11328 0.02344-0.22656-0.04687-0.34375l-0.42188-0.65625 0.54688-0.3125 4.2969 7.7344c0.09375 0.17578 0.16016 0.27344 0.20312 0.29688l-2.8594 1.5938-0.26562-0.48438c0.82031-0.46094 1.3008-0.99609 1.4375-1.6094 0.13281-0.61719-0.054688-1.3828-0.5625-2.2969l-1.0938-1.9688c-0.08594-0.14453-0.21484-0.16406-0.39062-0.0625l-4.2188 2.3438 0.95312 1.7188c0.23828 0.41406 0.59375 0.66016 1.0625 0.73438 0.46875 0.082031 0.99219-0.039063 1.5781-0.35938l0.28125 0.5-4.25 2.3594-0.28125-0.5c0.53906-0.30469 0.91016-0.69531 1.1094-1.1719 0.20703-0.46875 0.20312-0.89844-0.015625-1.2812l-0.95312-1.7188-4.7031 2.6094c-0.15625 0.09375-0.19531 0.21094-0.10938 0.35938l1.4219 2.5625c0.46875 0.84375 1.0547 1.3477 1.7656 1.5156 0.71875 0.16406 1.5312 0 2.4375-0.5l0.28125 0.5-3.3438 1.8594c-0.11719-0.29297-0.40234-0.84375-0.85938-1.6562l-3.875-6.9844z"/>
   </g>
   <g transform="translate(115.76 242.61)">
    <path d="m1.1562 0.39062 0.5 0.6875c0.16406 0.1875 0.36719 0.17578 0.60938-0.03125l7.9375-6.8438c0.09375-0.082031 0.14453-0.17969 0.15625-0.29688 0.01953-0.125-0.01172-0.22656-0.09375-0.3125l-0.5625-0.5625 0.48438-0.40625 5.7812 6.7031c0.125 0.15625 0.20703 0.24219 0.25 0.25l-2.4688 2.1406-0.375-0.42188c0.70703-0.61719 1.0664-1.2344 1.0781-1.8594 0.01953-0.63281-0.3125-1.3477-1-2.1406l-1.4688-1.7031c-0.11719-0.125-0.25-0.125-0.40625 0l-3.6562 3.1562 1.2812 1.4844c0.3125 0.36328 0.70703 0.53516 1.1875 0.51562 0.48828-0.023438 0.98438-0.25 1.4844-0.6875l0.35938 0.42188-3.6719 3.1719-0.35938-0.42188c0.45703-0.39844 0.73438-0.85156 0.82812-1.3594 0.10156-0.5 0.007812-0.91797-0.28125-1.25l-1.2812-1.4844-4.0625 3.5c-0.13672 0.11328-0.14844 0.23438-0.03125 0.35938l1.9062 2.2188c0.625 0.72656 1.3008 1.1016 2.0312 1.125 0.73828 0.019531 1.5-0.30469 2.2812-0.96875l0.39062 0.4375-2.9062 2.5c-0.17969-0.27344-0.57031-0.75781-1.1719-1.4531l-5.2188-6.0625z"/>
   </g>
  </g>
  <g transform="translate(128.12 255.76)"></g>
  <g transform="matrix(.22677 0 0 .22677 -18.144 -18.144)">
   <g transform="translate(136.59 262.61)">
    <path d="m1.2188 0 0.67188 0.46875c0.22656 0.13281 0.42578 0.066406 0.59375-0.20312l5.3438-9.0156c0.0625-0.10156 0.082031-0.21094 0.0625-0.32812-0.023437-0.125-0.09375-0.21875-0.21875-0.28125l-0.6875-0.34375 0.32812-0.54688 4.0625 2.4219c1.332 0.79297 2.1602 1.5898 2.4844 2.3906 0.33203 0.80469 0.20312 1.7148-0.39062 2.7344-0.36719 0.61719-0.88672 1.0312-1.5625 1.25-0.66797 0.21094-1.3867 0.21094-2.1562 0 0.38281 0.21875 0.69141 0.57031 0.92188 1.0469 0.22656 0.47656 0.32031 1.0312 0.28125 1.6562-0.03125 0.63281-0.23438 1.2695-0.60938 1.9062-0.21875 0.35156-0.39844 0.74219-0.53125 1.1719-0.13672 0.4375-0.125 0.71094 0.03125 0.82812 0.0625 0.070312 0.14453 0.14062 0.25 0.20312 0.13281 0.082031 0.25391 0.12891 0.35938 0.14062l-0.3125 0.53125-2.4375-1.4531c0.019531-0.39844 0.16406-0.85156 0.4375-1.3594 0.16406-0.33594 0.28906-0.57031 0.375-0.70312l0.35938-0.59375c0.53906-0.90625 0.64844-1.75 0.32812-2.5312-0.32422-0.78906-0.90625-1.4375-1.75-1.9375l-0.76562-0.45312-2.5312 4.2656c-0.16797 0.26953-0.13281 0.47656 0.10938 0.625l0.92188 0.46875-0.3125 0.53125-3.9688-2.3594zm7.4531-2.5c0.55078 0.32422 1.0977 0.38281 1.6406 0.17188 0.55078-0.20703 1.0391-0.66406 1.4688-1.375 0.48828-0.83203 0.67188-1.5352 0.54688-2.1094-0.11719-0.58203-0.53125-1.0859-1.25-1.5156l-1.125-0.67188c-0.14844-0.082031-0.26172-0.0625-0.34375 0.0625l-2.625 4.4375z"/>
   </g>
   <g transform="translate(153.08 271.68)">
    <path d="m2.8438-5.6719c0.64453-1.9766 1.6484-3.3281 3.0156-4.0469 1.375-0.72656 2.9727-0.79688 4.7969-0.20312 1.8438 0.60547 3.0859 1.6094 3.7344 3.0156 0.65625 1.4062 0.66406 3.0781 0.03125 5.0156-0.64844 1.957-1.6523 3.3047-3.0156 4.0469-1.3672 0.73828-2.9609 0.8125-4.7812 0.21875-1.8242-0.59375-3.0742-1.5938-3.75-3-0.66797-1.4062-0.67969-3.0859-0.03125-5.0469zm2.0469 0.67188c-0.65625 2-0.82812 3.5391-0.51562 4.6094 0.32031 1.0703 1.1289 1.8164 2.4219 2.2344 1.2891 0.42578 2.3789 0.30078 3.2656-0.375 0.89453-0.67969 1.6719-2.0156 2.3281-4.0156 0.64453-1.9766 0.8125-3.5039 0.5-4.5781-0.3125-1.082-1.1172-1.8359-2.4062-2.2656-1.293-0.41406-2.3867-0.28125-3.2812 0.40625-0.89844 0.67969-1.668 2.0078-2.3125 3.9844z"/>
   </g>
   <g transform="translate(172.99 277.34)">
    <path d="m13.047 0.625-0.0625 0.60938-5.5469-0.53125 0.0625-0.60938 1.0156 0.14062c0.41406 0.082031 0.64453-0.070313 0.6875-0.45312 0.019531-0.22656-0.03125-0.5-0.15625-0.8125l-0.78125-2.5781-4.875-0.46875-1.1875 2.2656c-0.23047 0.41797-0.35547 0.75781-0.375 1.0156-0.03125 0.29297 0.10156 0.44531 0.40625 0.45312l1.0312 0.03125-0.0625 0.60938-3.625-0.34375 0.0625-0.60938 0.53125 0.10938h0.078125c0.28125 0.03125 0.53125-0.082031 0.75-0.34375 0.23828-0.28125 0.48438-0.66016 0.73438-1.1406l5.3594-10.094 0.54688 0.046875 3.4219 10.984c0.13281 0.51172 0.30078 0.92969 0.5 1.25 0.15625 0.25781 0.37891 0.40625 0.67188 0.4375l0.09375 0.015625zm-9.3438-5.25 4.375 0.40625-1.7031-5.4688z"/>
   </g>
   <g transform="translate(192.06 278.39)">
    <path d="m1.0625-4.3906c0.59375 2.5312 2.0078 3.6836 4.25 3.4531 0.70703-0.070312 1.2383-0.35938 1.5938-0.85938 0.36328-0.50781 0.51562-1.1406 0.45312-1.8906-0.0625-0.55078-0.29688-1.0078-0.70312-1.375-0.40625-0.36328-0.94922-0.64062-1.625-0.82812l-2.2188-0.625c-0.78125-0.23828-1.3984-0.59375-1.8438-1.0625-0.4375-0.47656-0.69531-1.0664-0.76562-1.7656-0.074219-0.61328 0.007813-1.2031 0.25-1.7656 0.23828-0.5625 0.63281-1.0312 1.1875-1.4062 0.55078-0.375 1.2344-0.60156 2.0469-0.6875 0.44531-0.05078 0.83203-0.05469 1.1562-0.01563 0.32031 0.04297 0.64062 0.10156 0.95312 0.17188 0.32031 0.07422 0.53516 0.125 0.64062 0.15625 0.23828 0.05469 0.4375 0.07422 0.59375 0.0625 0.25-0.03125 0.45312-0.07813 0.60938-0.14062-0.011719 0.33594 0.019531 0.85938 0.09375 1.5781 0.039063 0.41797 0.078125 0.71484 0.10938 0.89062 0.03125 0.17969 0.085938 0.33984 0.17188 0.48438l-0.54688 0.0625c-0.10547-0.90624-0.48438-1.6094-1.1406-2.1094-0.64844-0.50781-1.418-0.71875-2.3125-0.625-0.73047 0.08594-1.2969 0.35156-1.7031 0.79688-0.39844 0.44922-0.55859 1.0312-0.48438 1.75 0.050781 0.44922 0.25391 0.83984 0.60938 1.1719 0.36328 0.33594 0.83594 0.58594 1.4219 0.75l2.0156 0.54688c1.0938 0.33594 1.8945 0.74219 2.4062 1.2188 0.50781 0.46875 0.80469 1.1094 0.89062 1.9219 0.082031 0.73047-0.027344 1.3984-0.32812 2-0.29297 0.60547-0.72656 1.0938-1.2969 1.4688-0.57422 0.375-1.2188 0.60156-1.9375 0.67188-0.42969 0.042969-0.80469 0.070313-1.125 0.078125-0.3125 0-0.65625-0.035156-1.0312-0.10938-0.77344-0.13281-1.3398-0.17969-1.7031-0.14062-0.13672 0.011719-0.26562 0.039062-0.39062 0.078125-0.125 0.042969-0.22656 0.078125-0.29688 0.10938 0.019531-0.3125-0.015625-0.89453-0.10938-1.75-0.11719-1.1328-0.24609-1.875-0.39062-2.2188z"/>
   </g>
   <g transform="translate(208.7 276.04)">
    <path d="m-3.375-12.141c0.1875-0.03125 0.46094-0.10156 0.8125-0.21875l8.4062-2.5625c0.42578-0.125 0.69531-0.21875 0.8125-0.28125l0.95312 3.125-0.53125 0.17188c-0.27344-0.86328-0.66406-1.4414-1.1719-1.7344-0.5-0.30078-1.1875-0.31641-2.0625-0.04687l-0.85938 0.25c-0.125 0.04297-0.17969 0.14844-0.15625 0.3125l3.125 10.234c0.082031 0.30469 0.25781 0.41406 0.53125 0.32812l1.0625-0.375 0.17188 0.57812-4.7969 1.4688-0.17188-0.57813 1.0625-0.28125c0.13281-0.039062 0.21875-0.125 0.25-0.25 0.039062-0.125 0.039062-0.25391 0-0.39062l-3.1094-10.156c-0.054687-0.16406-0.15625-0.22266-0.3125-0.17188l-0.82812 0.25c-0.88281 0.27344-1.457 0.67188-1.7188 1.2031-0.25781 0.53125-0.25391 1.2305 0.015625 2.0938l-0.53125 0.15625z"/>
   </g>
   <g transform="translate(225.34 270.32)">
    <path d="m0.625-1.0469 0.76562-0.35938c0.22656-0.11328 0.26953-0.30469 0.125-0.57812l-5-9.2188c-0.050781-0.11328-0.13281-0.19141-0.25-0.23438-0.11328-0.03906-0.22266-0.02344-0.32812 0.04687l-0.67188 0.42188-0.29688-0.54688 7.7969-4.2188c0.16406-0.09375 0.26562-0.16015 0.29688-0.20312l1.5469 2.875-0.5 0.28125c-0.44922-0.83203-0.98047-1.3203-1.5938-1.4688-0.60547-0.14453-1.3711 0.03125-2.2969 0.53125l-1.9688 1.0781c-0.15625 0.08594-0.1875 0.21484-0.09375 0.39062l2.2969 4.25 1.7344-0.9375c0.42578-0.22656 0.67969-0.57812 0.76562-1.0469 0.082031-0.47656-0.039063-1.0078-0.35938-1.5938l0.5-0.26562 2.3125 4.2812-0.5 0.26562c-0.29297-0.53906-0.67969-0.91406-1.1562-1.125-0.46875-0.20703-0.89844-0.20703-1.2812 0l-1.7344 0.9375 2.5625 4.7344c0.082031 0.15625 0.20312 0.19531 0.35938 0.10938l2.5781-1.3906c0.84375-0.45703 1.3477-1.0391 1.5156-1.75 0.17578-0.71875 0.019531-1.5312-0.46875-2.4375l0.51562-0.28125 1.8281 3.375c-0.29297 0.10547-0.85156 0.38281-1.6719 0.82812l-7.0312 3.7969z"/>
   </g>
   <g transform="translate(241.16 261.03)">
    <path d="m0.40625-1.1406 0.67188-0.48438c0.19531-0.17578 0.19141-0.38281-0.015625-0.625l-6.7656-8.0156c-0.082031-0.09375-0.17969-0.14453-0.29688-0.15625-0.11328-0.01953-0.22266 0.02344-0.32812 0.125l-0.5625 0.53125-0.40625-0.48438 3.625-3.0625c1.1797-1 2.2031-1.5234 3.0781-1.5781 0.875-0.05078 1.6914 0.37109 2.4531 1.2656 0.45703 0.55469 0.67578 1.1836 0.65625 1.8906-0.011719 0.71094-0.25 1.3867-0.71875 2.0312 0.34375-0.28125 0.77344-0.45312 1.2969-0.51562 0.53125-0.0625 1.0859 0.03125 1.6719 0.28125 0.58203 0.24219 1.1133 0.64062 1.5938 1.2031 0.26953 0.3125 0.58203 0.60547 0.9375 0.875 0.36328 0.26172 0.62891 0.33984 0.79688 0.23438 0.082031-0.03125 0.17188-0.082031 0.26562-0.15625 0.125-0.11328 0.20703-0.21875 0.25-0.3125l0.40625 0.48438-2.1719 1.8281c-0.36719-0.15625-0.74219-0.44531-1.125-0.875-0.26172-0.25781-0.44531-0.45312-0.54688-0.57812l-0.45312-0.53125c-0.67969-0.80078-1.4453-1.1758-2.2969-1.125-0.84375 0.042969-1.6406 0.38281-2.3906 1.0156l-0.6875 0.57812 3.2031 3.7969c0.20703 0.24219 0.42188 0.26562 0.64062 0.078125l0.75-0.70312 0.39062 0.46875-3.5312 2.9844zm0.0625-7.875c0.48828-0.41406 0.72266-0.91406 0.70312-1.5-0.023437-0.58203-0.29688-1.1914-0.82812-1.8281-0.625-0.72656-1.2266-1.1289-1.8125-1.2031-0.58203-0.07031-1.1914 0.15625-1.8281 0.6875l-1.0156 0.84375c-0.125 0.11719-0.14062 0.22656-0.046875 0.32812l3.3281 3.9375z"/>
   </g>
   <g transform="translate(254.94 248.43)">
    <path d="m-2.3906-3.8594c2.2305 1.3672 4.0469 1.168 5.4531-0.59375 0.4375-0.55078 0.60156-1.1289 0.5-1.7344-0.10547-0.61328-0.44922-1.1602-1.0312-1.6406-0.42969-0.34375-0.91797-0.49219-1.4688-0.45312-0.55469 0.03125-1.1289 0.21875-1.7344 0.5625l-2 1.1406c-0.70703 0.39844-1.3906 0.58984-2.0469 0.57812-0.65625-0.019531-1.2539-0.25-1.7969-0.6875-0.48828-0.38281-0.84766-0.85938-1.0781-1.4219-0.23828-0.5625-0.30078-1.1719-0.1875-1.8281 0.11719-0.66406 0.43359-1.3203 0.95312-1.9688 0.27344-0.34375 0.53906-0.60938 0.79688-0.79688 0.26172-0.19531 0.53125-0.38281 0.8125-0.5625 0.27344-0.1875 0.45312-0.3125 0.54688-0.375 0.21094-0.125 0.35938-0.25 0.45312-0.375 0.15625-0.19531 0.26562-0.375 0.32812-0.53125 0.23047 0.25 0.625 0.60156 1.1875 1.0469 0.33594 0.26172 0.57422 0.44531 0.71875 0.54688 0.14844 0.10547 0.30469 0.17969 0.46875 0.21875l-0.34375 0.4375c-0.71875-0.57031-1.4844-0.79688-2.2969-0.67188-0.82031 0.11719-1.5156 0.52344-2.0781 1.2188-0.44531 0.57422-0.64844 1.1641-0.60938 1.7656 0.03125 0.59375 0.32812 1.1094 0.89062 1.5469 0.35547 0.29297 0.78125 0.42969 1.2812 0.40625 0.49219-0.019531 0.99609-0.17969 1.5156-0.48438l1.7969-1.0469c1.0117-0.5625 1.8594-0.85156 2.5469-0.875 0.69531-0.03125 1.3672 0.21094 2.0156 0.71875 0.57031 0.46094 0.96875 1.0078 1.1875 1.6406 0.22656 0.63672 0.27344 1.2891 0.14062 1.9531-0.13672 0.66797-0.42969 1.2812-0.875 1.8438-0.26172 0.33594-0.50781 0.62109-0.73438 0.85938-0.23047 0.23047-0.5 0.45312-0.8125 0.67188-0.625 0.44922-1.0547 0.8125-1.2812 1.0938-0.085937 0.10547-0.15625 0.21875-0.21875 0.34375s-0.10547 0.21875-0.125 0.28125c-0.21094-0.22656-0.64844-0.60938-1.3281-1.1406-0.88281-0.70703-1.5078-1.1328-1.875-1.2812z"/>
   </g>
   <g transform="translate(137.5 223.5)">
    <path d="m47.859 3.0312c-1.375-1.4375-1.8359-3.2266-1.375-5.375l0.29688-1.7656-0.29688-2.8281c0.71875-3.125 1.1758-6.3477 1.375-9.6719l-0.29688-1.3594 0.6875-1.4688-0.6875-4.5938 0.29688-9.9531c-1.1797-0.97656-1.5391-2.1797-1.0781-3.6094l1.0781-2.1562h-1.0781c-2.0859 3.5859-4.4297 7.1523-7.0312 10.703-2.6055 3.543-5.5703 6.875-8.8906 10-3.3242 2.6055-6.4648 5.3906-9.4219 8.3594-2.9609 2.9609-6.1992 5.3828-9.7188 7.2656l-1.0781-1.75 3.2344-1.7656c4.2266-4.0312 8.5859-8.1289 13.078-12.297 4.4883-4.1641 8.5234-8.6289 12.109-13.391 1.625-2.6016 2.9727-5.3164 4.0469-8.1406 1.082-2.832 2.0781-5.6797 2.9844-8.5469h-1.3594l-2.8438 0.67188-1.8438-0.28125c-3.2617 0.1875-6.4844 0.75781-9.6719 1.7031-3.1875 0.94922-6.5742 1.4219-10.156 1.4219l-1.0781-2.8438c4.4883-1.1641 9.0938-1.9922 13.812-2.4844 4.7266-0.48828 9.4688-1.0938 14.219-1.8125 0.71875-3.5078 0.94531-7.0547 0.6875-10.641l-0.6875-3.9062-1.375-0.39062-0.78125-1.75c0.71875-1.6328 2.1484-2.3516 4.2969-2.1562l3.2344 1.4688 0.28125 3.2188c-1.4297 4.4922-2.0117 9.2109-1.75 14.156 7.3516-0.38281 14.676-0.125 21.969 0.78125l0.6875 1.7656-3.5156 2.1406c-4.6875-1.6875-9.7656-2.2695-15.234-1.75l-2.4375 0.29688-0.39062 1.0625-1.4688 9.9688 1.8594 2.5312 2.0469 1.375c2.4062 2.4062 5.0078 4.6836 7.8125 6.8281 6.6328 3.5234 13.254 7.2344 19.859 11.141 6.6133 3.9062 14.055 5.6328 22.328 5.1719l1.4688-0.29688 0.67188 1.375c-3.0547 1.6875-6.6016 2.4023-10.641 2.1406-8.2734-2.1445-16.07-5.3477-23.391-9.6094-7.3242-4.2695-14.531-8.7812-21.625-13.531l-0.39062 16.016 0.78125 2.5469-0.39062 2.8281 0.6875 5.2656-0.29688 1.0781 0.29688 3.6094-1.375 2.4531z"/>
   </g>
  </g>
 </g>
</svg>
